<svg width="32" height="32" viewBox="0 0 32 32" fill="none" xmlns="http://www.w3.org/2000/svg">
<g clip-path="url(#clip0)">
<path d="M1.875 20.625V29.1875C1.875 30.7384 3.13663 32 4.6875 32H29.0625C30.6134 32 32 30.7384 32 29.1875V20.625H1.875ZM6.5625 28.25C6.04475 28.25 5.625 27.8302 5.625 27.3125C5.625 26.7947 6.04475 26.375 6.5625 26.375C7.08025 26.375 7.5 26.7946 7.5 27.3125C7.5 27.8302 7.08025 28.25 6.5625 28.25ZM27.1875 28.25C26.6698 28.25 26.25 27.8302 26.25 27.3125C26.25 26.7947 26.6698 26.375 27.1875 26.375C27.7052 26.375 28.125 26.7946 28.125 27.3125C28.125 27.8302 27.7052 28.25 27.1875 28.25Z" fill="white"/>
<path d="M1.875 15C2.91053 15 3.75 14.1605 3.75 13.125C3.75 12.0895 2.91053 11.25 1.875 11.25C0.839466 11.25 0 12.0895 0 13.125C0 14.1605 0.839466 15 1.875 15Z" fill="white"/>
<path d="M13.9378 3.91443L10.2178 4.91118L15.6708 9.27343L19.3908 8.27674L13.9378 3.91443Z" fill="white"/>
<path d="M31.9678 3.96961L31.4824 2.0853C31.0804 0.584861 29.4132 -0.305514 27.9129 0.0965483L22.1567 1.71205L27.6097 6.07442L31.3049 5.1178C31.805 4.9838 32.1018 4.46974 31.9678 3.96961Z" fill="white"/>
<path d="M19.9073 2.31482L16.1875 3.31157L21.6405 7.67394L25.3604 6.67719L19.9073 2.31482Z" fill="white"/>
<path d="M7.96859 5.51392L4.24902 6.5106L9.70234 10.8729L13.4216 9.87617L7.96859 5.51392Z" fill="white"/>
<path d="M2.08336 7.18054C1.12199 7.64573 0.496863 8.59135 0.484863 9.64892C0.915613 9.47598 1.38299 9.37504 1.87499 9.37504C3.5543 9.37504 4.96205 10.4912 5.43836 12.0153L7.45261 11.4756L2.08336 7.18054Z" fill="white"/>
<path d="M23.3145 13.125L19.5645 18.75H22.9358L26.6859 13.125H23.3145Z" fill="white"/>
<path d="M17.6895 13.125L13.9395 18.75H17.311L21.061 13.125H17.6895Z" fill="white"/>
<path d="M31.0625 13.125H28.9391L25.189 18.75H32V14.0625C32 13.5447 31.5802 13.125 31.0625 13.125Z" fill="white"/>
<path d="M12.0645 13.125L8.31445 18.75H11.686L15.436 13.125H12.0645Z" fill="white"/>
<path d="M5.625 13.125C5.625 15.1932 3.94319 16.875 1.875 16.875V18.75H6.06081L9.81081 13.125H5.625Z" fill="white"/>
</g>
<defs>
<clipPath id="clip0">
<rect width="32" height="32" fill="white"/>
</clipPath>
</defs>
</svg>
