<svg width="32" height="32" viewBox="0 0 32 32" fill="none" xmlns="http://www.w3.org/2000/svg">
<g clip-path="url(#clip0)">
<path d="M30.5885 7.05884H26.3531V8.47059V9.88234V18.4784C26.3531 20.8137 24.4533 22.7137 22.1178 22.7137H13.3509L12.0064 23.6549L9.98949 25.0667L8.76343 25.9249C9.02149 26.2609 9.42612 26.4784 9.88255 26.4784H19.5396L26.3907 31.2743C26.6325 31.4435 26.9158 31.5295 27.2004 31.5295C27.4233 31.5295 27.6471 31.4768 27.8523 31.37C28.3191 31.1268 28.612 30.6442 28.612 30.1178V26.4785H30.5885C31.3682 26.4785 32.0003 25.8465 32.0003 25.0667V8.47059C32.0002 7.6909 31.3681 7.05884 30.5885 7.05884Z" fill="white"/>
<path d="M22.1176 0.470459H1.41175C0.632125 0.470459 0 1.10246 0 1.88227V18.4782C0 19.258 0.632125 19.89 1.41175 19.89H3.38825V23.5293C3.38825 24.0556 3.68113 24.5383 4.14806 24.7815C4.35313 24.8883 4.57694 24.941 4.79994 24.941C5.08444 24.941 5.36781 24.855 5.60962 24.6858L8.47062 22.683L9.88237 21.6948L11.2941 20.7065L12.4607 19.8898H22.1176C22.8973 19.8898 23.5294 19.2578 23.5294 18.4781V9.88215V8.4704V7.05865V1.88227C23.5294 1.10246 22.8973 0.470459 22.1176 0.470459ZM16.4706 14.5881H15.6094H7.05881C6.27913 14.5881 5.64706 13.956 5.64706 13.1764C5.64706 12.3966 6.27913 11.7646 7.05881 11.7646H16.4706C17.036 11.7646 17.5225 12.0979 17.7478 12.578C17.8332 12.76 17.8823 12.9622 17.8823 13.1764C17.8824 13.956 17.2502 14.5881 16.4706 14.5881ZM16.4706 8.94096H7.05881C6.27913 8.94096 5.64706 8.30883 5.64706 7.52921C5.64706 6.74952 6.27913 6.11746 7.05881 6.11746H16.4706C17.2502 6.11746 17.8823 6.74958 17.8823 7.52921C17.8824 8.3089 17.2502 8.94096 16.4706 8.94096Z" fill="white"/>
</g>
<defs>
<clipPath id="clip0">
<rect width="32" height="32" fill="white"/>
</clipPath>
</defs>
</svg>
