<svg width="32" height="32" viewBox="0 0 32 32" fill="none" xmlns="http://www.w3.org/2000/svg">
<path d="M31.0626 0H28.2223C27.9736 0 27.7352 0.0987502 27.5594 0.274625L9.37842 18.4556L13.5445 22.6217L31.7255 4.44069C31.9014 4.26488 32.0001 4.02644 32.0001 3.77776V0.937501C32.0001 0.419751 31.5804 0 31.0626 0V0Z" fill="white"/>
<path d="M3.73696 24.1058C3.18058 24.6622 2.88464 25.3894 2.85689 26.1228C2.13239 26.1431 1.41396 26.4289 0.860954 26.9818C-0.286985 28.1298 -0.286985 29.991 0.860954 31.139C2.00889 32.287 3.87015 32.287 5.01815 31.139C5.56777 30.5894 5.85352 29.8762 5.87684 29.1561C6.59702 29.1329 7.31028 28.8469 7.85996 28.2972L9.56247 26.5946L5.40527 22.4375L3.73696 24.1058Z" fill="white"/>
<path d="M17.322 21.4917L21.4875 17.3262L22.6171 18.4558L18.4516 22.6213L17.322 21.4917Z" fill="white"/>
<path d="M10.5081 14.6741L14.6742 10.508L4.44076 0.274625C4.26494 0.0987502 4.02651 0 3.77782 0H0.937501C0.419751 0 0 0.419751 0 0.937501V3.77776C0 4.02644 0.0987502 4.26488 0.274625 4.44063L10.5081 14.6741Z" fill="white"/>
<path d="M29.1431 26.1229C29.1154 25.3894 28.8194 24.6622 28.2631 24.1059L26.5947 22.4375L22.4375 26.5946L24.1401 28.2972C24.6898 28.8469 25.403 29.1329 26.1232 29.1561C26.1465 29.8762 26.4323 30.5894 26.9819 31.139C28.1298 32.287 29.9911 32.287 31.1391 31.139C32.287 29.9911 32.287 28.1298 31.1391 26.9818C30.5861 26.4289 29.8676 26.1431 29.1431 26.1229Z" fill="white"/>
<path d="M27.7093 17.3455C27.3432 16.9794 26.7495 16.9794 26.3835 17.3455L17.3454 26.3835C16.9793 26.7496 16.9793 27.3433 17.3454 27.7093C17.7115 28.0754 18.3051 28.0754 18.6712 27.7093L27.7093 18.6713C28.0754 18.3052 28.0754 17.7116 27.7093 17.3455Z" fill="white"/>
<path d="M5.61652 17.3455C5.25046 16.9794 4.65683 16.9794 4.29071 17.3455C3.92458 17.7116 3.92458 18.3052 4.29071 18.6713L13.3288 27.7093C13.6948 28.0754 14.2885 28.0754 14.6546 27.7093C15.0207 27.3433 15.0207 26.7496 14.6546 26.3835L5.61652 17.3455Z" fill="white"/>
</svg>
