<svg width="32" height="32" viewBox="0 0 32 32" fill="none" xmlns="http://www.w3.org/2000/svg">
<g clip-path="url(#clip0)">
<path d="M31.455 6.96296L31.3767 6.88461C30.6409 6.14883 29.4419 6.1472 28.7016 6.8868L25.8219 9.79683C25.6702 9.94903 25.4275 9.95516 25.2693 9.80951L21.2318 6.08203C20.8397 5.71964 20.3294 5.52051 19.795 5.52051H13.789C13.6472 5.52051 13.5116 5.57455 13.409 5.67165L8.31857 10.505C7.57284 11.2513 7.52155 12.4542 8.20497 13.1867C8.57012 13.5784 9.06322 13.794 9.59326 13.794H9.60263C10.1283 13.7912 10.6335 13.5679 10.9827 13.1862L14.5777 9.38145H15.8646L7.47469 18.7582H2.29994C1.07324 18.7582 0.0644672 19.6754 0.00323505 20.8464C-0.029318 21.4581 0.184682 22.0394 0.60556 22.4828C1.02031 22.9202 1.60333 23.1706 2.20622 23.1706H9.9281C10.0803 23.1706 10.2259 23.1078 10.3307 22.9958L14.2871 18.7725L17.6141 22.2517L16.6097 28.6708C16.3565 29.7342 16.8668 30.8175 17.8226 31.2449C18.1172 31.3773 18.4299 31.4435 18.741 31.4435C19.0757 31.4435 19.4089 31.3668 19.7156 31.2151C20.308 30.9217 20.7338 30.385 20.8887 29.7176L22.6047 20.5136C22.6378 20.3349 22.5809 20.1507 22.4519 20.0222L17.8723 15.4487L21.5104 11.8161L24.0465 14.3516C24.7547 15.0599 25.9891 15.0599 26.6968 14.3516L31.4551 9.59382C31.8065 9.24249 32.0001 8.77475 32.0001 8.27833C32 7.78148 31.8064 7.3143 31.455 6.96296Z" fill="#414153"/>
<path d="M25.3717 7.17522C27.1968 7.17522 28.6811 5.69097 28.6811 3.86581C28.6811 2.04065 27.1968 0.556396 25.3717 0.556396C23.5466 0.556396 22.0623 2.04065 22.0623 3.86581C22.0623 5.69097 23.5466 7.17522 25.3717 7.17522Z" fill="#414153"/>
</g>
<defs>
<clipPath id="clip0">
<rect width="32" height="32" fill="white"/>
</clipPath>
</defs>
</svg>
